<?xml version="1.0" encoding="utf-8" standalone="no"?>
<!DOCTYPE svg PUBLIC "-//W3C//DTD SVG 1.1//EN"
  "http://www.w3.org/Graphics/SVG/1.1/DTD/svg11.dtd">
<svg xmlns:xlink="http://www.w3.org/1999/xlink" width="1050.888233pt" height="407.398078pt" viewBox="0 0 1050.888233 407.398078" xmlns="http://www.w3.org/2000/svg" version="1.1">
 <metadata>
  <rdf:RDF xmlns:dc="http://purl.org/dc/elements/1.1/" xmlns:cc="http://creativecommons.org/ns#" xmlns:rdf="http://www.w3.org/1999/02/22-rdf-syntax-ns#">
   <cc:Work>
    <dc:type rdf:resource="http://purl.org/dc/dcmitype/StillImage"/>
    <dc:date>2026-05-19T18:23:40.473526</dc:date>
    <dc:format>image/svg+xml</dc:format>
    <dc:creator>
     <cc:Agent>
      <dc:title>Matplotlib v3.10.3, https://matplotlib.org/</dc:title>
     </cc:Agent>
    </dc:creator>
   </cc:Work>
  </rdf:RDF>
 </metadata>
 <defs>
  <style type="text/css">*{stroke-linejoin: round; stroke-linecap: butt}</style>
 </defs>
 <g id="figure_1">
  <g id="patch_1">
   <path d="M 0 407.398078 
L 1050.888233 407.398078 
L 1050.888233 0 
L 0 0 
z
" style="fill: #ffffff"/>
  </g>
  <g id="axes_1">
   <g id="patch_2">
    <path d="M 63.182188 279.098223 
L 507.344242 279.098223 
L 507.344242 31.25375 
L 63.182188 31.25375 
z
" style="fill: #ffffff"/>
   </g>
   <g id="patch_3">
    <path d="M 83.371372 279.098223 
L 106.779122 279.098223 
L 106.779122 191.461528 
L 83.371372 191.461528 
z
" clip-path="url(#p687edb0f01)" style="fill: #1f77b4; opacity: 0.8"/>
   </g>
   <g id="patch_4">
    <path d="M 112.631059 279.098223 
L 136.038809 279.098223 
L 136.038809 197.203675 
L 112.631059 197.203675 
z
" clip-path="url(#p687edb0f01)" style="fill: #aec7e8; opacity: 0.8"/>
   </g>
   <g id="patch_5">
    <path d="M 141.890747 279.098223 
L 165.298496 279.098223 
L 165.298496 59.793348 
L 141.890747 59.793348 
z
" clip-path="url(#p687edb0f01)" style="fill: #ffbb78; opacity: 0.8"/>
   </g>
   <g id="patch_6">
    <path d="M 171.150434 279.098223 
L 194.558184 279.098223 
L 194.558184 79.226378 
L 171.150434 79.226378 
z
" clip-path="url(#p687edb0f01)" style="fill: #2ca02c; opacity: 0.8"/>
   </g>
   <g id="patch_7">
    <path d="M 200.410121 279.098223 
L 223.817871 279.098223 
L 223.817871 78.010246 
L 200.410121 78.010246 
z
" clip-path="url(#p687edb0f01)" style="fill: #d62728; opacity: 0.8"/>
   </g>
   <g id="patch_8">
    <path d="M 229.669809 279.098223 
L 253.077558 279.098223 
L 253.077558 66.262666 
L 229.669809 66.262666 
z
" clip-path="url(#p687edb0f01)" style="fill: #ff9896; opacity: 0.8"/>
   </g>
   <g id="patch_9">
    <path d="M 258.929496 279.098223 
L 282.337246 279.098223 
L 282.337246 67.466261 
L 258.929496 67.466261 
z
" clip-path="url(#p687edb0f01)" style="fill: #c5b0d5; opacity: 0.8"/>
   </g>
   <g id="patch_10">
    <path d="M 288.189183 279.098223 
L 311.596933 279.098223 
L 311.596933 66.262666 
L 288.189183 66.262666 
z
" clip-path="url(#p687edb0f01)" style="fill: #8c564b; opacity: 0.8"/>
   </g>
   <g id="patch_11">
    <path d="M 317.448871 279.098223 
L 340.856621 279.098223 
L 340.856621 66.58864 
L 317.448871 66.58864 
z
" clip-path="url(#p687edb0f01)" style="fill: #e377c2; opacity: 0.8"/>
   </g>
   <g id="patch_12">
    <path d="M 346.708558 279.098223 
L 370.116308 279.098223 
L 370.116308 91.676054 
L 346.708558 91.676054 
z
" clip-path="url(#p687edb0f01)" style="fill: #f7b6d2; opacity: 0.8"/>
   </g>
   <g id="patch_13">
    <path d="M 375.968245 279.098223 
L 399.375995 279.098223 
L 399.375995 91.676054 
L 375.968245 91.676054 
z
" clip-path="url(#p687edb0f01)" style="fill: #c7c7c7; opacity: 0.8"/>
   </g>
   <g id="patch_14">
    <path d="M 405.227933 279.098223 
L 428.635683 279.098223 
L 428.635683 56.245253 
L 405.227933 56.245253 
z
" clip-path="url(#p687edb0f01)" style="fill: #bcbd22; opacity: 0.8"/>
   </g>
   <g id="patch_15">
    <path d="M 434.48762 279.098223 
L 457.89537 279.098223 
L 457.89537 56.245253 
L 434.48762 56.245253 
z
" clip-path="url(#p687edb0f01)" style="fill: #17becf; opacity: 0.8"/>
   </g>
   <g id="patch_16">
    <path d="M 463.747308 279.098223 
L 487.155057 279.098223 
L 487.155057 43.055868 
L 463.747308 43.055868 
z
" clip-path="url(#p687edb0f01)" style="fill: #9edae5; opacity: 0.8"/>
   </g>
   <g id="matplotlib.axis_1">
    <g id="xtick_1">
     <g id="line2d_1">
      <defs>
       <path id="m3c6c50761d" d="M 0 0 
L 0 3.5 
" style="stroke: #000000; stroke-width: 0.8"/>
      </defs>
      <g>
       <use xlink:href="#m3c6c50761d" x="95.075247" y="279.098223" style="stroke: #000000; stroke-width: 0.8"/>
      </g>
     </g>
     <g id="text_1">
      <!-- qwen3.5 -->
      <g transform="translate(76.393044 338.415949) rotate(-45) scale(0.18 -0.18)">
       <defs>
        <path id="TimesNewRomanPSMT-71" d="M 2734 2947 
L 2734 -734 
Q 2734 -1009 2771 -1087 
Q 2809 -1166 2889 -1209 
Q 2969 -1253 3200 -1253 
L 3200 -1369 
L 1756 -1369 
L 1756 -1253 
L 1816 -1253 
Q 1991 -1253 2081 -1203 
Q 2144 -1169 2181 -1080 
Q 2219 -991 2219 -734 
L 2219 497 
Q 1934 159 1721 35 
Q 1509 -88 1281 -88 
Q 866 -88 539 290 
Q 213 669 213 1303 
Q 213 2031 644 2489 
Q 1075 2947 1684 2947 
Q 1863 2947 2013 2897 
Q 2163 2847 2281 2747 
Q 2463 2834 2628 2947 
L 2734 2947 
z
M 2219 694 
L 2219 2038 
Q 2219 2272 2158 2406 
Q 2097 2541 1940 2634 
Q 1784 2728 1588 2728 
Q 1238 2728 988 2431 
Q 738 2134 738 1531 
Q 738 953 992 653 
Q 1247 353 1606 353 
Q 1791 353 1934 433 
Q 2078 513 2219 694 
z
" transform="scale(0.015625)"/>
        <path id="TimesNewRomanPSMT-77" d="M 41 2863 
L 1241 2863 
L 1241 2747 
Q 1075 2734 1023 2687 
Q 972 2641 972 2553 
Q 972 2456 1025 2319 
L 1638 672 
L 2253 2013 
L 2091 2434 
Q 2016 2622 1894 2694 
Q 1825 2738 1638 2747 
L 1638 2863 
L 3000 2863 
L 3000 2747 
Q 2775 2738 2681 2666 
Q 2619 2616 2619 2506 
Q 2619 2444 2644 2378 
L 3294 734 
L 3897 2319 
Q 3959 2488 3959 2588 
Q 3959 2647 3898 2694 
Q 3838 2741 3659 2747 
L 3659 2863 
L 4563 2863 
L 4563 2747 
Q 4291 2706 4163 2378 
L 3206 -88 
L 3078 -88 
L 2363 1741 
L 1528 -88 
L 1413 -88 
L 494 2319 
Q 403 2547 315 2626 
Q 228 2706 41 2747 
L 41 2863 
z
" transform="scale(0.015625)"/>
        <path id="TimesNewRomanPSMT-65" d="M 681 1784 
Q 678 1147 991 784 
Q 1303 422 1725 422 
Q 2006 422 2214 576 
Q 2422 731 2563 1106 
L 2659 1044 
Q 2594 616 2278 264 
Q 1963 -88 1488 -88 
Q 972 -88 605 314 
Q 238 716 238 1394 
Q 238 2128 614 2539 
Q 991 2950 1559 2950 
Q 2041 2950 2350 2633 
Q 2659 2316 2659 1784 
L 681 1784 
z
M 681 1966 
L 2006 1966 
Q 1991 2241 1941 2353 
Q 1863 2528 1708 2628 
Q 1553 2728 1384 2728 
Q 1125 2728 920 2526 
Q 716 2325 681 1966 
z
" transform="scale(0.015625)"/>
        <path id="TimesNewRomanPSMT-6e" d="M 1034 2341 
Q 1538 2947 1994 2947 
Q 2228 2947 2397 2830 
Q 2566 2713 2666 2444 
Q 2734 2256 2734 1869 
L 2734 647 
Q 2734 375 2778 278 
Q 2813 200 2889 156 
Q 2966 113 3172 113 
L 3172 0 
L 1756 0 
L 1756 113 
L 1816 113 
Q 2016 113 2095 173 
Q 2175 234 2206 353 
Q 2219 400 2219 647 
L 2219 1819 
Q 2219 2209 2117 2386 
Q 2016 2563 1775 2563 
Q 1403 2563 1034 2156 
L 1034 647 
Q 1034 356 1069 288 
Q 1113 197 1189 155 
Q 1266 113 1500 113 
L 1500 0 
L 84 0 
L 84 113 
L 147 113 
Q 366 113 442 223 
Q 519 334 519 647 
L 519 1709 
Q 519 2225 495 2337 
Q 472 2450 423 2490 
Q 375 2531 294 2531 
Q 206 2531 84 2484 
L 38 2597 
L 900 2947 
L 1034 2947 
L 1034 2341 
z
" transform="scale(0.015625)"/>
        <path id="TimesNewRomanPSMT-33" d="M 325 3431 
Q 506 3859 782 4092 
Q 1059 4325 1472 4325 
Q 1981 4325 2253 3994 
Q 2459 3747 2459 3466 
Q 2459 3003 1878 2509 
Q 2269 2356 2469 2072 
Q 2669 1788 2669 1403 
Q 2669 853 2319 450 
Q 1863 -75 997 -75 
Q 569 -75 414 31 
Q 259 138 259 259 
Q 259 350 332 419 
Q 406 488 509 488 
Q 588 488 669 463 
Q 722 447 909 348 
Q 1097 250 1169 231 
Q 1284 197 1416 197 
Q 1734 197 1970 444 
Q 2206 691 2206 1028 
Q 2206 1275 2097 1509 
Q 2016 1684 1919 1775 
Q 1784 1900 1550 2001 
Q 1316 2103 1072 2103 
L 972 2103 
L 972 2197 
Q 1219 2228 1467 2375 
Q 1716 2522 1828 2728 
Q 1941 2934 1941 3181 
Q 1941 3503 1739 3701 
Q 1538 3900 1238 3900 
Q 753 3900 428 3381 
L 325 3431 
z
" transform="scale(0.015625)"/>
        <path id="TimesNewRomanPSMT-2e" d="M 800 606 
Q 947 606 1047 504 
Q 1147 403 1147 259 
Q 1147 116 1045 14 
Q 944 -88 800 -88 
Q 656 -88 554 14 
Q 453 116 453 259 
Q 453 406 554 506 
Q 656 606 800 606 
z
" transform="scale(0.015625)"/>
        <path id="TimesNewRomanPSMT-35" d="M 2778 4238 
L 2534 3706 
L 1259 3706 
L 981 3138 
Q 1809 3016 2294 2522 
Q 2709 2097 2709 1522 
Q 2709 1188 2573 903 
Q 2438 619 2231 419 
Q 2025 219 1772 97 
Q 1413 -75 1034 -75 
Q 653 -75 479 54 
Q 306 184 306 341 
Q 306 428 378 495 
Q 450 563 559 563 
Q 641 563 702 538 
Q 763 513 909 409 
Q 1144 247 1384 247 
Q 1750 247 2026 523 
Q 2303 800 2303 1197 
Q 2303 1581 2056 1914 
Q 1809 2247 1375 2428 
Q 1034 2569 447 2591 
L 1259 4238 
L 2778 4238 
z
" transform="scale(0.015625)"/>
       </defs>
       <use xlink:href="#TimesNewRomanPSMT-71"/>
       <use xlink:href="#TimesNewRomanPSMT-77" transform="translate(50 0)"/>
       <use xlink:href="#TimesNewRomanPSMT-65" transform="translate(122.216797 0)"/>
       <use xlink:href="#TimesNewRomanPSMT-6e" transform="translate(166.601562 0)"/>
       <use xlink:href="#TimesNewRomanPSMT-33" transform="translate(216.601562 0)"/>
       <use xlink:href="#TimesNewRomanPSMT-2e" transform="translate(266.601562 0)"/>
       <use xlink:href="#TimesNewRomanPSMT-35" transform="translate(291.601562 0)"/>
      </g>
     </g>
    </g>
    <g id="xtick_2">
     <g id="line2d_2">
      <g>
       <use xlink:href="#m3c6c50761d" x="124.334934" y="279.098223" style="stroke: #000000; stroke-width: 0.8"/>
      </g>
     </g>
     <g id="text_2">
      <!-- mistral -->
      <g transform="translate(109.717711 330.285989) rotate(-45) scale(0.18 -0.18)">
       <defs>
        <path id="TimesNewRomanPSMT-6d" d="M 1050 2338 
Q 1363 2650 1419 2697 
Q 1559 2816 1721 2881 
Q 1884 2947 2044 2947 
Q 2313 2947 2506 2790 
Q 2700 2634 2766 2338 
Q 3088 2713 3309 2830 
Q 3531 2947 3766 2947 
Q 3994 2947 4170 2830 
Q 4347 2713 4450 2447 
Q 4519 2266 4519 1878 
L 4519 647 
Q 4519 378 4559 278 
Q 4591 209 4675 161 
Q 4759 113 4950 113 
L 4950 0 
L 3538 0 
L 3538 113 
L 3597 113 
Q 3781 113 3884 184 
Q 3956 234 3988 344 
Q 4000 397 4000 647 
L 4000 1878 
Q 4000 2228 3916 2372 
Q 3794 2572 3525 2572 
Q 3359 2572 3192 2489 
Q 3025 2406 2788 2181 
L 2781 2147 
L 2788 2013 
L 2788 647 
Q 2788 353 2820 281 
Q 2853 209 2943 161 
Q 3034 113 3253 113 
L 3253 0 
L 1806 0 
L 1806 113 
Q 2044 113 2133 169 
Q 2222 225 2256 338 
Q 2272 391 2272 647 
L 2272 1878 
Q 2272 2228 2169 2381 
Q 2031 2581 1784 2581 
Q 1616 2581 1450 2491 
Q 1191 2353 1050 2181 
L 1050 647 
Q 1050 366 1089 281 
Q 1128 197 1204 155 
Q 1281 113 1516 113 
L 1516 0 
L 100 0 
L 100 113 
Q 297 113 375 155 
Q 453 197 493 289 
Q 534 381 534 647 
L 534 1741 
Q 534 2213 506 2350 
Q 484 2453 437 2492 
Q 391 2531 309 2531 
Q 222 2531 100 2484 
L 53 2597 
L 916 2947 
L 1050 2947 
L 1050 2338 
z
" transform="scale(0.015625)"/>
        <path id="TimesNewRomanPSMT-69" d="M 928 4444 
Q 1059 4444 1151 4351 
Q 1244 4259 1244 4128 
Q 1244 3997 1151 3903 
Q 1059 3809 928 3809 
Q 797 3809 703 3903 
Q 609 3997 609 4128 
Q 609 4259 701 4351 
Q 794 4444 928 4444 
z
M 1188 2947 
L 1188 647 
Q 1188 378 1227 289 
Q 1266 200 1342 156 
Q 1419 113 1622 113 
L 1622 0 
L 231 0 
L 231 113 
Q 441 113 512 153 
Q 584 194 626 287 
Q 669 381 669 647 
L 669 1750 
Q 669 2216 641 2353 
Q 619 2453 572 2492 
Q 525 2531 444 2531 
Q 356 2531 231 2484 
L 188 2597 
L 1050 2947 
L 1188 2947 
z
" transform="scale(0.015625)"/>
        <path id="TimesNewRomanPSMT-73" d="M 2050 2947 
L 2050 1972 
L 1947 1972 
Q 1828 2431 1642 2597 
Q 1456 2763 1169 2763 
Q 950 2763 815 2647 
Q 681 2531 681 2391 
Q 681 2216 781 2091 
Q 878 1963 1175 1819 
L 1631 1597 
Q 2266 1288 2266 781 
Q 2266 391 1970 151 
Q 1675 -88 1309 -88 
Q 1047 -88 709 6 
Q 606 38 541 38 
Q 469 38 428 -44 
L 325 -44 
L 325 978 
L 428 978 
Q 516 541 762 319 
Q 1009 97 1316 97 
Q 1531 97 1667 223 
Q 1803 350 1803 528 
Q 1803 744 1651 891 
Q 1500 1038 1047 1263 
Q 594 1488 453 1669 
Q 313 1847 313 2119 
Q 313 2472 555 2709 
Q 797 2947 1181 2947 
Q 1350 2947 1591 2875 
Q 1750 2828 1803 2828 
Q 1853 2828 1881 2850 
Q 1909 2872 1947 2947 
L 2050 2947 
z
" transform="scale(0.015625)"/>
        <path id="TimesNewRomanPSMT-74" d="M 1031 3803 
L 1031 2863 
L 1700 2863 
L 1700 2644 
L 1031 2644 
L 1031 788 
Q 1031 509 1111 412 
Q 1191 316 1316 316 
Q 1419 316 1516 380 
Q 1613 444 1666 569 
L 1788 569 
Q 1678 263 1478 108 
Q 1278 -47 1066 -47 
Q 922 -47 784 33 
Q 647 113 581 261 
Q 516 409 516 719 
L 516 2644 
L 63 2644 
L 63 2747 
Q 234 2816 414 2980 
Q 594 3144 734 3369 
Q 806 3488 934 3803 
L 1031 3803 
z
" transform="scale(0.015625)"/>
        <path id="TimesNewRomanPSMT-72" d="M 1038 2947 
L 1038 2303 
Q 1397 2947 1775 2947 
Q 1947 2947 2059 2842 
Q 2172 2738 2172 2600 
Q 2172 2478 2090 2393 
Q 2009 2309 1897 2309 
Q 1788 2309 1652 2417 
Q 1516 2525 1450 2525 
Q 1394 2525 1328 2463 
Q 1188 2334 1038 2041 
L 1038 669 
Q 1038 431 1097 309 
Q 1138 225 1241 169 
Q 1344 113 1538 113 
L 1538 0 
L 72 0 
L 72 113 
Q 291 113 397 181 
Q 475 231 506 341 
Q 522 394 522 644 
L 522 1753 
Q 522 2253 501 2348 
Q 481 2444 426 2487 
Q 372 2531 291 2531 
Q 194 2531 72 2484 
L 41 2597 
L 906 2947 
L 1038 2947 
z
" transform="scale(0.015625)"/>
        <path id="TimesNewRomanPSMT-61" d="M 1822 413 
Q 1381 72 1269 19 
Q 1100 -59 909 -59 
Q 613 -59 420 144 
Q 228 347 228 678 
Q 228 888 322 1041 
Q 450 1253 767 1440 
Q 1084 1628 1822 1897 
L 1822 2009 
Q 1822 2438 1686 2597 
Q 1550 2756 1291 2756 
Q 1094 2756 978 2650 
Q 859 2544 859 2406 
L 866 2225 
Q 866 2081 792 2003 
Q 719 1925 600 1925 
Q 484 1925 411 2006 
Q 338 2088 338 2228 
Q 338 2497 613 2722 
Q 888 2947 1384 2947 
Q 1766 2947 2009 2819 
Q 2194 2722 2281 2516 
Q 2338 2381 2338 1966 
L 2338 994 
Q 2338 584 2353 492 
Q 2369 400 2405 369 
Q 2441 338 2488 338 
Q 2538 338 2575 359 
Q 2641 400 2828 588 
L 2828 413 
Q 2478 -56 2159 -56 
Q 2006 -56 1915 50 
Q 1825 156 1822 413 
z
M 1822 616 
L 1822 1706 
Q 1350 1519 1213 1441 
Q 966 1303 859 1153 
Q 753 1003 753 825 
Q 753 600 887 451 
Q 1022 303 1197 303 
Q 1434 303 1822 616 
z
" transform="scale(0.015625)"/>
        <path id="TimesNewRomanPSMT-6c" d="M 1184 4444 
L 1184 647 
Q 1184 378 1223 290 
Q 1263 203 1344 158 
Q 1425 113 1647 113 
L 1647 0 
L 244 0 
L 244 113 
Q 441 113 512 153 
Q 584 194 625 287 
Q 666 381 666 647 
L 666 3247 
Q 666 3731 644 3842 
Q 622 3953 573 3993 
Q 525 4034 450 4034 
Q 369 4034 244 3984 
L 191 4094 
L 1044 4444 
L 1184 4444 
z
" transform="scale(0.015625)"/>
       </defs>
       <use xlink:href="#TimesNewRomanPSMT-6d"/>
       <use xlink:href="#TimesNewRomanPSMT-69" transform="translate(77.783203 0)"/>
       <use xlink:href="#TimesNewRomanPSMT-73" transform="translate(105.566406 0)"/>
       <use xlink:href="#TimesNewRomanPSMT-74" transform="translate(144.482422 0)"/>
       <use xlink:href="#TimesNewRomanPSMT-72" transform="translate(172.265625 0)"/>
       <use xlink:href="#TimesNewRomanPSMT-61" transform="translate(205.566406 0)"/>
       <use xlink:href="#TimesNewRomanPSMT-6c" transform="translate(249.951172 0)"/>
      </g>
     </g>
    </g>
    <g id="xtick_3">
     <g id="line2d_3">
      <g>
       <use xlink:href="#m3c6c50761d" x="153.594621" y="279.098223" style="stroke: #000000; stroke-width: 0.8"/>
      </g>
     </g>
     <g id="text_3">
      <!-- modernbertic -->
      <g transform="translate(122.725433 362.78992) rotate(-45) scale(0.18 -0.18)">
       <defs>
        <path id="TimesNewRomanPSMT-6f" d="M 1600 2947 
Q 2250 2947 2644 2453 
Q 2978 2031 2978 1484 
Q 2978 1100 2793 706 
Q 2609 313 2286 112 
Q 1963 -88 1566 -88 
Q 919 -88 538 428 
Q 216 863 216 1403 
Q 216 1797 411 2186 
Q 606 2575 925 2761 
Q 1244 2947 1600 2947 
z
M 1503 2744 
Q 1338 2744 1170 2645 
Q 1003 2547 900 2300 
Q 797 2053 797 1666 
Q 797 1041 1045 587 
Q 1294 134 1700 134 
Q 2003 134 2200 384 
Q 2397 634 2397 1244 
Q 2397 2006 2069 2444 
Q 1847 2744 1503 2744 
z
" transform="scale(0.015625)"/>
        <path id="TimesNewRomanPSMT-64" d="M 2222 322 
Q 2013 103 1813 7 
Q 1613 -88 1381 -88 
Q 913 -88 563 304 
Q 213 697 213 1313 
Q 213 1928 600 2439 
Q 988 2950 1597 2950 
Q 1975 2950 2222 2709 
L 2222 3238 
Q 2222 3728 2198 3840 
Q 2175 3953 2125 3993 
Q 2075 4034 2000 4034 
Q 1919 4034 1784 3984 
L 1744 4094 
L 2597 4444 
L 2738 4444 
L 2738 1134 
Q 2738 631 2761 520 
Q 2784 409 2836 365 
Q 2888 322 2956 322 
Q 3041 322 3181 375 
L 3216 266 
L 2366 -88 
L 2222 -88 
L 2222 322 
z
M 2222 541 
L 2222 2016 
Q 2203 2228 2109 2403 
Q 2016 2578 1861 2667 
Q 1706 2756 1559 2756 
Q 1284 2756 1069 2509 
Q 784 2184 784 1559 
Q 784 928 1059 592 
Q 1334 256 1672 256 
Q 1956 256 2222 541 
z
" transform="scale(0.015625)"/>
        <path id="TimesNewRomanPSMT-62" d="M 984 2369 
Q 1400 2947 1881 2947 
Q 2322 2947 2650 2570 
Q 2978 2194 2978 1541 
Q 2978 778 2472 313 
Q 2038 -88 1503 -88 
Q 1253 -88 995 3 
Q 738 94 469 275 
L 469 3241 
Q 469 3728 445 3840 
Q 422 3953 372 3993 
Q 322 4034 247 4034 
Q 159 4034 28 3984 
L -16 4094 
L 844 4444 
L 984 4444 
L 984 2369 
z
M 984 2169 
L 984 456 
Q 1144 300 1314 220 
Q 1484 141 1663 141 
Q 1947 141 2192 453 
Q 2438 766 2438 1363 
Q 2438 1913 2192 2208 
Q 1947 2503 1634 2503 
Q 1469 2503 1303 2419 
Q 1178 2356 984 2169 
z
" transform="scale(0.015625)"/>
        <path id="TimesNewRomanPSMT-63" d="M 2631 1088 
Q 2516 522 2178 217 
Q 1841 -88 1431 -88 
Q 944 -88 581 321 
Q 219 731 219 1428 
Q 219 2103 620 2525 
Q 1022 2947 1584 2947 
Q 2006 2947 2278 2723 
Q 2550 2500 2550 2259 
Q 2550 2141 2473 2067 
Q 2397 1994 2259 1994 
Q 2075 1994 1981 2113 
Q 1928 2178 1911 2362 
Q 1894 2547 1784 2644 
Q 1675 2738 1481 2738 
Q 1169 2738 978 2506 
Q 725 2200 725 1697 
Q 725 1184 976 792 
Q 1228 400 1656 400 
Q 1963 400 2206 609 
Q 2378 753 2541 1131 
L 2631 1088 
z
" transform="scale(0.015625)"/>
       </defs>
       <use xlink:href="#TimesNewRomanPSMT-6d"/>
       <use xlink:href="#TimesNewRomanPSMT-6f" transform="translate(77.783203 0)"/>
       <use xlink:href="#TimesNewRomanPSMT-64" transform="translate(127.783203 0)"/>
       <use xlink:href="#TimesNewRomanPSMT-65" transform="translate(177.783203 0)"/>
       <use xlink:href="#TimesNewRomanPSMT-72" transform="translate(222.167969 0)"/>
       <use xlink:href="#TimesNewRomanPSMT-6e" transform="translate(255.46875 0)"/>
       <use xlink:href="#TimesNewRomanPSMT-62" transform="translate(305.46875 0)"/>
       <use xlink:href="#TimesNewRomanPSMT-65" transform="translate(355.46875 0)"/>
       <use xlink:href="#TimesNewRomanPSMT-72" transform="translate(399.853516 0)"/>
       <use xlink:href="#TimesNewRomanPSMT-74" transform="translate(433.154297 0)"/>
       <use xlink:href="#TimesNewRomanPSMT-69" transform="translate(460.9375 0)"/>
       <use xlink:href="#TimesNewRomanPSMT-63" transform="translate(488.720703 0)"/>
      </g>
     </g>
    </g>
    <g id="xtick_4">
     <g id="line2d_4">
      <g>
       <use xlink:href="#m3c6c50761d" x="182.854309" y="279.098223" style="stroke: #000000; stroke-width: 0.8"/>
      </g>
     </g>
     <g id="text_4">
      <!-- bpe -->
      <g transform="translate(176.72303 313.3141) rotate(-45) scale(0.18 -0.18)">
       <defs>
        <path id="TimesNewRomanPSMT-70" d="M -6 2578 
L 875 2934 
L 994 2934 
L 994 2266 
Q 1216 2644 1439 2795 
Q 1663 2947 1909 2947 
Q 2341 2947 2628 2609 
Q 2981 2197 2981 1534 
Q 2981 794 2556 309 
Q 2206 -88 1675 -88 
Q 1444 -88 1275 -22 
Q 1150 25 994 166 
L 994 -706 
Q 994 -1000 1030 -1079 
Q 1066 -1159 1155 -1206 
Q 1244 -1253 1478 -1253 
L 1478 -1369 
L -22 -1369 
L -22 -1253 
L 56 -1253 
Q 228 -1256 350 -1188 
Q 409 -1153 442 -1076 
Q 475 -1000 475 -688 
L 475 2019 
Q 475 2297 450 2372 
Q 425 2447 370 2484 
Q 316 2522 222 2522 
Q 147 2522 31 2478 
L -6 2578 
z
M 994 2081 
L 994 1013 
Q 994 666 1022 556 
Q 1066 375 1236 237 
Q 1406 100 1666 100 
Q 1978 100 2172 344 
Q 2425 663 2425 1241 
Q 2425 1897 2138 2250 
Q 1938 2494 1663 2494 
Q 1513 2494 1366 2419 
Q 1253 2363 994 2081 
z
" transform="scale(0.015625)"/>
       </defs>
       <use xlink:href="#TimesNewRomanPSMT-62"/>
       <use xlink:href="#TimesNewRomanPSMT-70" transform="translate(50 0)"/>
       <use xlink:href="#TimesNewRomanPSMT-65" transform="translate(100 0)"/>
      </g>
     </g>
    </g>
    <g id="xtick_5">
     <g id="line2d_5">
      <g>
       <use xlink:href="#m3c6c50761d" x="212.113996" y="279.098223" style="stroke: #000000; stroke-width: 0.8"/>
      </g>
     </g>
     <g id="text_5">
      <!-- ts_bpe -->
      <g transform="translate(198.543844 328.167983) rotate(-45) scale(0.18 -0.18)">
       <defs>
        <path id="TimesNewRomanPSMT-5f" d="M 3256 -1381 
L -53 -1381 
L -53 -1119 
L 3256 -1119 
L 3256 -1381 
z
" transform="scale(0.015625)"/>
       </defs>
       <use xlink:href="#TimesNewRomanPSMT-74"/>
       <use xlink:href="#TimesNewRomanPSMT-73" transform="translate(27.783203 0)"/>
       <use xlink:href="#TimesNewRomanPSMT-5f" transform="translate(66.699219 0)"/>
       <use xlink:href="#TimesNewRomanPSMT-62" transform="translate(116.699219 0)"/>
       <use xlink:href="#TimesNewRomanPSMT-70" transform="translate(166.699219 0)"/>
       <use xlink:href="#TimesNewRomanPSMT-65" transform="translate(216.699219 0)"/>
      </g>
     </g>
    </g>
    <g id="xtick_6">
     <g id="line2d_6">
      <g>
       <use xlink:href="#m3c6c50761d" x="241.373684" y="279.098223" style="stroke: #000000; stroke-width: 0.8"/>
      </g>
     </g>
     <g id="text_6">
      <!-- MiRe_bpe_control -->
      <g transform="translate(196.343687 391.08767) rotate(-45) scale(0.18 -0.18)">
       <defs>
        <path id="TimesNewRomanPSMT-4d" d="M 2619 0 
L 981 3566 
L 981 734 
Q 981 344 1066 247 
Q 1181 116 1431 116 
L 1581 116 
L 1581 0 
L 106 0 
L 106 116 
L 256 116 
Q 525 116 638 278 
Q 706 378 706 734 
L 706 3503 
Q 706 3784 644 3909 
Q 600 4000 483 4061 
Q 366 4122 106 4122 
L 106 4238 
L 1306 4238 
L 2844 922 
L 4356 4238 
L 5556 4238 
L 5556 4122 
L 5409 4122 
Q 5138 4122 5025 3959 
Q 4956 3859 4956 3503 
L 4956 734 
Q 4956 344 5044 247 
Q 5159 116 5409 116 
L 5556 116 
L 5556 0 
L 3756 0 
L 3756 116 
L 3906 116 
Q 4178 116 4288 278 
Q 4356 378 4356 734 
L 4356 3566 
L 2722 0 
L 2619 0 
z
" transform="scale(0.015625)"/>
        <path id="TimesNewRomanPSMT-52" d="M 4325 0 
L 3194 0 
L 1759 1981 
Q 1600 1975 1500 1975 
Q 1459 1975 1412 1976 
Q 1366 1978 1316 1981 
L 1316 750 
Q 1316 350 1403 253 
Q 1522 116 1759 116 
L 1925 116 
L 1925 0 
L 109 0 
L 109 116 
L 269 116 
Q 538 116 653 291 
Q 719 388 719 750 
L 719 3488 
Q 719 3888 631 3984 
Q 509 4122 269 4122 
L 109 4122 
L 109 4238 
L 1653 4238 
Q 2328 4238 2648 4139 
Q 2969 4041 3192 3777 
Q 3416 3513 3416 3147 
Q 3416 2756 3161 2468 
Q 2906 2181 2372 2063 
L 3247 847 
Q 3547 428 3762 290 
Q 3978 153 4325 116 
L 4325 0 
z
M 1316 2178 
Q 1375 2178 1419 2176 
Q 1463 2175 1491 2175 
Q 2097 2175 2405 2437 
Q 2713 2700 2713 3106 
Q 2713 3503 2464 3751 
Q 2216 4000 1806 4000 
Q 1625 4000 1316 3941 
L 1316 2178 
z
" transform="scale(0.015625)"/>
       </defs>
       <use xlink:href="#TimesNewRomanPSMT-4d"/>
       <use xlink:href="#TimesNewRomanPSMT-69" transform="translate(88.916016 0)"/>
       <use xlink:href="#TimesNewRomanPSMT-52" transform="translate(116.699219 0)"/>
       <use xlink:href="#TimesNewRomanPSMT-65" transform="translate(183.398438 0)"/>
       <use xlink:href="#TimesNewRomanPSMT-5f" transform="translate(227.783203 0)"/>
       <use xlink:href="#TimesNewRomanPSMT-62" transform="translate(277.783203 0)"/>
       <use xlink:href="#TimesNewRomanPSMT-70" transform="translate(327.783203 0)"/>
       <use xlink:href="#TimesNewRomanPSMT-65" transform="translate(377.783203 0)"/>
       <use xlink:href="#TimesNewRomanPSMT-5f" transform="translate(422.167969 0)"/>
       <use xlink:href="#TimesNewRomanPSMT-63" transform="translate(472.167969 0)"/>
       <use xlink:href="#TimesNewRomanPSMT-6f" transform="translate(516.552734 0)"/>
       <use xlink:href="#TimesNewRomanPSMT-6e" transform="translate(566.552734 0)"/>
       <use xlink:href="#TimesNewRomanPSMT-74" transform="translate(616.552734 0)"/>
       <use xlink:href="#TimesNewRomanPSMT-72" transform="translate(644.335938 0)"/>
       <use xlink:href="#TimesNewRomanPSMT-6f" transform="translate(677.636719 0)"/>
       <use xlink:href="#TimesNewRomanPSMT-6c" transform="translate(727.636719 0)"/>
      </g>
     </g>
    </g>
    <g id="xtick_7">
     <g id="line2d_7">
      <g>
       <use xlink:href="#m3c6c50761d" x="270.633371" y="279.098223" style="stroke: #000000; stroke-width: 0.8"/>
      </g>
     </g>
     <g id="text_7">
      <!-- MiRe_bpe -->
      <g transform="translate(246.811275 348.67187) rotate(-45) scale(0.18 -0.18)">
       <use xlink:href="#TimesNewRomanPSMT-4d"/>
       <use xlink:href="#TimesNewRomanPSMT-69" transform="translate(88.916016 0)"/>
       <use xlink:href="#TimesNewRomanPSMT-52" transform="translate(116.699219 0)"/>
       <use xlink:href="#TimesNewRomanPSMT-65" transform="translate(183.398438 0)"/>
       <use xlink:href="#TimesNewRomanPSMT-5f" transform="translate(227.783203 0)"/>
       <use xlink:href="#TimesNewRomanPSMT-62" transform="translate(277.783203 0)"/>
       <use xlink:href="#TimesNewRomanPSMT-70" transform="translate(327.783203 0)"/>
       <use xlink:href="#TimesNewRomanPSMT-65" transform="translate(377.783203 0)"/>
      </g>
     </g>
    </g>
    <g id="xtick_8">
     <g id="line2d_8">
      <g>
       <use xlink:href="#m3c6c50761d" x="299.893058" y="279.098223" style="stroke: #000000; stroke-width: 0.8"/>
      </g>
     </g>
     <g id="text_8">
      <!-- MiRe_bpe_mien -->
      <g transform="translate(260.164043 380.485709) rotate(-45) scale(0.18 -0.18)">
       <use xlink:href="#TimesNewRomanPSMT-4d"/>
       <use xlink:href="#TimesNewRomanPSMT-69" transform="translate(88.916016 0)"/>
       <use xlink:href="#TimesNewRomanPSMT-52" transform="translate(116.699219 0)"/>
       <use xlink:href="#TimesNewRomanPSMT-65" transform="translate(183.398438 0)"/>
       <use xlink:href="#TimesNewRomanPSMT-5f" transform="translate(227.783203 0)"/>
       <use xlink:href="#TimesNewRomanPSMT-62" transform="translate(277.783203 0)"/>
       <use xlink:href="#TimesNewRomanPSMT-70" transform="translate(327.783203 0)"/>
       <use xlink:href="#TimesNewRomanPSMT-65" transform="translate(377.783203 0)"/>
       <use xlink:href="#TimesNewRomanPSMT-5f" transform="translate(422.167969 0)"/>
       <use xlink:href="#TimesNewRomanPSMT-6d" transform="translate(472.167969 0)"/>
       <use xlink:href="#TimesNewRomanPSMT-69" transform="translate(549.951172 0)"/>
       <use xlink:href="#TimesNewRomanPSMT-65" transform="translate(577.734375 0)"/>
       <use xlink:href="#TimesNewRomanPSMT-6e" transform="translate(622.119141 0)"/>
      </g>
     </g>
    </g>
    <g id="xtick_9">
     <g id="line2d_9">
      <g>
       <use xlink:href="#m3c6c50761d" x="329.152746" y="279.098223" style="stroke: #000000; stroke-width: 0.8"/>
      </g>
     </g>
     <g id="text_9">
      <!-- MiRe_bpe_control2 -->
      <g transform="translate(280.940769 397.451631) rotate(-45) scale(0.18 -0.18)">
       <defs>
        <path id="TimesNewRomanPSMT-32" d="M 2934 816 
L 2638 0 
L 138 0 
L 138 116 
Q 1241 1122 1691 1759 
Q 2141 2397 2141 2925 
Q 2141 3328 1894 3587 
Q 1647 3847 1303 3847 
Q 991 3847 742 3664 
Q 494 3481 375 3128 
L 259 3128 
Q 338 3706 661 4015 
Q 984 4325 1469 4325 
Q 1984 4325 2329 3994 
Q 2675 3663 2675 3213 
Q 2675 2891 2525 2569 
Q 2294 2063 1775 1497 
Q 997 647 803 472 
L 1909 472 
Q 2247 472 2383 497 
Q 2519 522 2628 598 
Q 2738 675 2819 816 
L 2934 816 
z
" transform="scale(0.015625)"/>
       </defs>
       <use xlink:href="#TimesNewRomanPSMT-4d"/>
       <use xlink:href="#TimesNewRomanPSMT-69" transform="translate(88.916016 0)"/>
       <use xlink:href="#TimesNewRomanPSMT-52" transform="translate(116.699219 0)"/>
       <use xlink:href="#TimesNewRomanPSMT-65" transform="translate(183.398438 0)"/>
       <use xlink:href="#TimesNewRomanPSMT-5f" transform="translate(227.783203 0)"/>
       <use xlink:href="#TimesNewRomanPSMT-62" transform="translate(277.783203 0)"/>
       <use xlink:href="#TimesNewRomanPSMT-70" transform="translate(327.783203 0)"/>
       <use xlink:href="#TimesNewRomanPSMT-65" transform="translate(377.783203 0)"/>
       <use xlink:href="#TimesNewRomanPSMT-5f" transform="translate(422.167969 0)"/>
       <use xlink:href="#TimesNewRomanPSMT-63" transform="translate(472.167969 0)"/>
       <use xlink:href="#TimesNewRomanPSMT-6f" transform="translate(516.552734 0)"/>
       <use xlink:href="#TimesNewRomanPSMT-6e" transform="translate(566.552734 0)"/>
       <use xlink:href="#TimesNewRomanPSMT-74" transform="translate(616.552734 0)"/>
       <use xlink:href="#TimesNewRomanPSMT-72" transform="translate(644.335938 0)"/>
       <use xlink:href="#TimesNewRomanPSMT-6f" transform="translate(677.636719 0)"/>
       <use xlink:href="#TimesNewRomanPSMT-6c" transform="translate(727.636719 0)"/>
       <use xlink:href="#TimesNewRomanPSMT-32" transform="translate(755.419922 0)"/>
      </g>
     </g>
    </g>
    <g id="xtick_10">
     <g id="line2d_10">
      <g>
       <use xlink:href="#m3c6c50761d" x="358.412433" y="279.098223" style="stroke: #000000; stroke-width: 0.8"/>
      </g>
     </g>
     <g id="text_10">
      <!-- srna -->
      <g transform="translate(350.867162 316.142085) rotate(-45) scale(0.18 -0.18)">
       <use xlink:href="#TimesNewRomanPSMT-73"/>
       <use xlink:href="#TimesNewRomanPSMT-72" transform="translate(38.916016 0)"/>
       <use xlink:href="#TimesNewRomanPSMT-6e" transform="translate(72.216797 0)"/>
       <use xlink:href="#TimesNewRomanPSMT-61" transform="translate(122.216797 0)"/>
      </g>
     </g>
    </g>
    <g id="xtick_11">
     <g id="line2d_11">
      <g>
       <use xlink:href="#m3c6c50761d" x="387.67212" y="279.098223" style="stroke: #000000; stroke-width: 0.8"/>
      </g>
     </g>
     <g id="text_11">
      <!-- srna2 -->
      <g transform="translate(376.944869 322.506046) rotate(-45) scale(0.18 -0.18)">
       <use xlink:href="#TimesNewRomanPSMT-73"/>
       <use xlink:href="#TimesNewRomanPSMT-72" transform="translate(38.916016 0)"/>
       <use xlink:href="#TimesNewRomanPSMT-6e" transform="translate(72.216797 0)"/>
       <use xlink:href="#TimesNewRomanPSMT-61" transform="translate(122.216797 0)"/>
       <use xlink:href="#TimesNewRomanPSMT-32" transform="translate(166.601562 0)"/>
      </g>
     </g>
    </g>
    <g id="xtick_12">
     <g id="line2d_12">
      <g>
       <use xlink:href="#m3c6c50761d" x="416.931808" y="279.098223" style="stroke: #000000; stroke-width: 0.8"/>
      </g>
     </g>
     <g id="text_12">
      <!-- Morfotok_base -->
      <g transform="translate(381.093758 372.703778) rotate(-45) scale(0.18 -0.18)">
       <defs>
        <path id="TimesNewRomanPSMT-66" d="M 1319 2638 
L 1319 756 
Q 1319 356 1406 250 
Q 1522 113 1716 113 
L 1975 113 
L 1975 0 
L 266 0 
L 266 113 
L 394 113 
Q 519 113 622 175 
Q 725 238 764 344 
Q 803 450 803 756 
L 803 2638 
L 247 2638 
L 247 2863 
L 803 2863 
L 803 3050 
Q 803 3478 940 3775 
Q 1078 4072 1361 4255 
Q 1644 4438 1997 4438 
Q 2325 4438 2600 4225 
Q 2781 4084 2781 3909 
Q 2781 3816 2700 3733 
Q 2619 3650 2525 3650 
Q 2453 3650 2373 3701 
Q 2294 3753 2178 3923 
Q 2063 4094 1966 4153 
Q 1869 4213 1750 4213 
Q 1606 4213 1506 4136 
Q 1406 4059 1362 3898 
Q 1319 3738 1319 3069 
L 1319 2863 
L 2056 2863 
L 2056 2638 
L 1319 2638 
z
" transform="scale(0.015625)"/>
        <path id="TimesNewRomanPSMT-6b" d="M 1047 4444 
L 1047 1597 
L 1775 2259 
Q 2006 2472 2044 2528 
Q 2069 2566 2069 2603 
Q 2069 2666 2017 2711 
Q 1966 2756 1847 2763 
L 1847 2863 
L 3091 2863 
L 3091 2763 
Q 2834 2756 2664 2684 
Q 2494 2613 2291 2428 
L 1556 1750 
L 2291 822 
Q 2597 438 2703 334 
Q 2853 188 2966 144 
Q 3044 113 3238 113 
L 3238 0 
L 1847 0 
L 1847 113 
Q 1966 116 2008 148 
Q 2050 181 2050 241 
Q 2050 313 1925 472 
L 1047 1594 
L 1047 644 
Q 1047 366 1086 278 
Q 1125 191 1197 153 
Q 1269 116 1509 113 
L 1509 0 
L 53 0 
L 53 113 
Q 272 113 381 166 
Q 447 200 481 272 
Q 528 375 528 628 
L 528 3234 
Q 528 3731 506 3842 
Q 484 3953 434 3995 
Q 384 4038 303 4038 
Q 238 4038 106 3984 
L 53 4094 
L 903 4444 
L 1047 4444 
z
" transform="scale(0.015625)"/>
       </defs>
       <use xlink:href="#TimesNewRomanPSMT-4d"/>
       <use xlink:href="#TimesNewRomanPSMT-6f" transform="translate(88.916016 0)"/>
       <use xlink:href="#TimesNewRomanPSMT-72" transform="translate(138.916016 0)"/>
       <use xlink:href="#TimesNewRomanPSMT-66" transform="translate(172.216797 0)"/>
       <use xlink:href="#TimesNewRomanPSMT-6f" transform="translate(205.517578 0)"/>
       <use xlink:href="#TimesNewRomanPSMT-74" transform="translate(255.517578 0)"/>
       <use xlink:href="#TimesNewRomanPSMT-6f" transform="translate(283.300781 0)"/>
       <use xlink:href="#TimesNewRomanPSMT-6b" transform="translate(333.300781 0)"/>
       <use xlink:href="#TimesNewRomanPSMT-5f" transform="translate(383.300781 0)"/>
       <use xlink:href="#TimesNewRomanPSMT-62" transform="translate(433.300781 0)"/>
       <use xlink:href="#TimesNewRomanPSMT-61" transform="translate(483.300781 0)"/>
       <use xlink:href="#TimesNewRomanPSMT-73" transform="translate(527.685547 0)"/>
       <use xlink:href="#TimesNewRomanPSMT-65" transform="translate(566.601562 0)"/>
      </g>
     </g>
    </g>
    <g id="xtick_13">
     <g id="line2d_13">
      <g>
       <use xlink:href="#m3c6c50761d" x="446.191495" y="279.098223" style="stroke: #000000; stroke-width: 0.8"/>
      </g>
     </g>
     <g id="text_13">
      <!-- Morfotok -->
      <g transform="translate(424.856316 343.721901) rotate(-45) scale(0.18 -0.18)">
       <use xlink:href="#TimesNewRomanPSMT-4d"/>
       <use xlink:href="#TimesNewRomanPSMT-6f" transform="translate(88.916016 0)"/>
       <use xlink:href="#TimesNewRomanPSMT-72" transform="translate(138.916016 0)"/>
       <use xlink:href="#TimesNewRomanPSMT-66" transform="translate(172.216797 0)"/>
       <use xlink:href="#TimesNewRomanPSMT-6f" transform="translate(205.517578 0)"/>
       <use xlink:href="#TimesNewRomanPSMT-74" transform="translate(255.517578 0)"/>
       <use xlink:href="#TimesNewRomanPSMT-6f" transform="translate(283.300781 0)"/>
       <use xlink:href="#TimesNewRomanPSMT-6b" transform="translate(333.300781 0)"/>
      </g>
     </g>
    </g>
    <g id="xtick_14">
     <g id="line2d_14">
      <g>
       <use xlink:href="#m3c6c50761d" x="475.451182" y="279.098223" style="stroke: #000000; stroke-width: 0.8"/>
      </g>
     </g>
     <g id="text_14">
      <!-- MorfotokCF -->
      <g transform="translate(446.332083 359.289741) rotate(-45) scale(0.18 -0.18)">
       <defs>
        <path id="TimesNewRomanPSMT-43" d="M 3853 4334 
L 3950 2894 
L 3853 2894 
Q 3659 3541 3300 3825 
Q 2941 4109 2438 4109 
Q 2016 4109 1675 3895 
Q 1334 3681 1139 3212 
Q 944 2744 944 2047 
Q 944 1472 1128 1050 
Q 1313 628 1683 403 
Q 2053 178 2528 178 
Q 2941 178 3256 354 
Q 3572 531 3950 1056 
L 4047 994 
Q 3728 428 3303 165 
Q 2878 -97 2294 -97 
Q 1241 -97 663 684 
Q 231 1266 231 2053 
Q 231 2688 515 3219 
Q 800 3750 1298 4042 
Q 1797 4334 2388 4334 
Q 2847 4334 3294 4109 
Q 3425 4041 3481 4041 
Q 3566 4041 3628 4100 
Q 3709 4184 3744 4334 
L 3853 4334 
z
" transform="scale(0.015625)"/>
        <path id="TimesNewRomanPSMT-46" d="M 1309 4006 
L 1309 2341 
L 2081 2341 
Q 2347 2341 2470 2458 
Q 2594 2575 2634 2922 
L 2750 2922 
L 2750 1488 
L 2634 1488 
Q 2631 1734 2570 1850 
Q 2509 1966 2401 2023 
Q 2294 2081 2081 2081 
L 1309 2081 
L 1309 750 
Q 1309 428 1350 325 
Q 1381 247 1481 191 
Q 1619 116 1769 116 
L 1922 116 
L 1922 0 
L 103 0 
L 103 116 
L 253 116 
Q 516 116 634 269 
Q 709 369 709 750 
L 709 3488 
Q 709 3809 669 3913 
Q 638 3991 541 4047 
Q 406 4122 253 4122 
L 103 4122 
L 103 4238 
L 3256 4238 
L 3297 3306 
L 3188 3306 
Q 3106 3603 2998 3742 
Q 2891 3881 2733 3943 
Q 2575 4006 2244 4006 
L 1309 4006 
z
" transform="scale(0.015625)"/>
       </defs>
       <use xlink:href="#TimesNewRomanPSMT-4d"/>
       <use xlink:href="#TimesNewRomanPSMT-6f" transform="translate(88.916016 0)"/>
       <use xlink:href="#TimesNewRomanPSMT-72" transform="translate(138.916016 0)"/>
       <use xlink:href="#TimesNewRomanPSMT-66" transform="translate(172.216797 0)"/>
       <use xlink:href="#TimesNewRomanPSMT-6f" transform="translate(205.517578 0)"/>
       <use xlink:href="#TimesNewRomanPSMT-74" transform="translate(255.517578 0)"/>
       <use xlink:href="#TimesNewRomanPSMT-6f" transform="translate(283.300781 0)"/>
       <use xlink:href="#TimesNewRomanPSMT-6b" transform="translate(333.300781 0)"/>
       <use xlink:href="#TimesNewRomanPSMT-43" transform="translate(383.300781 0)"/>
       <use xlink:href="#TimesNewRomanPSMT-46" transform="translate(450 0)"/>
      </g>
     </g>
    </g>
   </g>
   <g id="matplotlib.axis_2">
    <g id="ytick_1">
     <g id="line2d_15">
      <defs>
       <path id="m6a83d30bfa" d="M 0 0 
L -3.5 0 
" style="stroke: #000000; stroke-width: 0.8"/>
      </defs>
      <g>
       <use xlink:href="#m6a83d30bfa" x="63.182188" y="279.098223" style="stroke: #000000; stroke-width: 0.8"/>
      </g>
     </g>
     <g id="text_15">
      <!-- 0.0 -->
      <g transform="translate(31.182188 286.041973) scale(0.2 -0.2)">
       <defs>
        <path id="TimesNewRomanPSMT-30" d="M 231 2094 
Q 231 2819 450 3342 
Q 669 3866 1031 4122 
Q 1313 4325 1613 4325 
Q 2100 4325 2488 3828 
Q 2972 3213 2972 2159 
Q 2972 1422 2759 906 
Q 2547 391 2217 158 
Q 1888 -75 1581 -75 
Q 975 -75 572 641 
Q 231 1244 231 2094 
z
M 844 2016 
Q 844 1141 1059 588 
Q 1238 122 1591 122 
Q 1759 122 1940 273 
Q 2122 425 2216 781 
Q 2359 1319 2359 2297 
Q 2359 3022 2209 3506 
Q 2097 3866 1919 4016 
Q 1791 4119 1609 4119 
Q 1397 4119 1231 3928 
Q 1006 3669 925 3112 
Q 844 2556 844 2016 
z
" transform="scale(0.015625)"/>
       </defs>
       <use xlink:href="#TimesNewRomanPSMT-30"/>
       <use xlink:href="#TimesNewRomanPSMT-2e" transform="translate(50 0)"/>
       <use xlink:href="#TimesNewRomanPSMT-30" transform="translate(75 0)"/>
      </g>
     </g>
    </g>
    <g id="ytick_2">
     <g id="line2d_16">
      <g>
       <use xlink:href="#m6a83d30bfa" x="63.182188" y="222.965603" style="stroke: #000000; stroke-width: 0.8"/>
      </g>
     </g>
     <g id="text_16">
      <!-- 0.2 -->
      <g transform="translate(31.182188 229.909353) scale(0.2 -0.2)">
       <use xlink:href="#TimesNewRomanPSMT-30"/>
       <use xlink:href="#TimesNewRomanPSMT-2e" transform="translate(50 0)"/>
       <use xlink:href="#TimesNewRomanPSMT-32" transform="translate(75 0)"/>
      </g>
     </g>
    </g>
    <g id="ytick_3">
     <g id="line2d_17">
      <g>
       <use xlink:href="#m6a83d30bfa" x="63.182188" y="166.832983" style="stroke: #000000; stroke-width: 0.8"/>
      </g>
     </g>
     <g id="text_17">
      <!-- 0.4 -->
      <g transform="translate(31.182188 173.776733) scale(0.2 -0.2)">
       <defs>
        <path id="TimesNewRomanPSMT-34" d="M 2978 1563 
L 2978 1119 
L 2409 1119 
L 2409 0 
L 1894 0 
L 1894 1119 
L 100 1119 
L 100 1519 
L 2066 4325 
L 2409 4325 
L 2409 1563 
L 2978 1563 
z
M 1894 1563 
L 1894 3666 
L 406 1563 
L 1894 1563 
z
" transform="scale(0.015625)"/>
       </defs>
       <use xlink:href="#TimesNewRomanPSMT-30"/>
       <use xlink:href="#TimesNewRomanPSMT-2e" transform="translate(50 0)"/>
       <use xlink:href="#TimesNewRomanPSMT-34" transform="translate(75 0)"/>
      </g>
     </g>
    </g>
    <g id="ytick_4">
     <g id="line2d_18">
      <g>
       <use xlink:href="#m6a83d30bfa" x="63.182188" y="110.700364" style="stroke: #000000; stroke-width: 0.8"/>
      </g>
     </g>
     <g id="text_18">
      <!-- 0.6 -->
      <g transform="translate(31.182188 117.644114) scale(0.2 -0.2)">
       <defs>
        <path id="TimesNewRomanPSMT-36" d="M 2869 4325 
L 2869 4209 
Q 2456 4169 2195 4045 
Q 1934 3922 1679 3669 
Q 1425 3416 1258 3105 
Q 1091 2794 978 2366 
Q 1428 2675 1881 2675 
Q 2316 2675 2634 2325 
Q 2953 1975 2953 1425 
Q 2953 894 2631 456 
Q 2244 -75 1606 -75 
Q 1172 -75 869 213 
Q 275 772 275 1663 
Q 275 2231 503 2743 
Q 731 3256 1154 3653 
Q 1578 4050 1965 4187 
Q 2353 4325 2688 4325 
L 2869 4325 
z
M 925 2138 
Q 869 1716 869 1456 
Q 869 1156 980 804 
Q 1091 453 1309 247 
Q 1469 100 1697 100 
Q 1969 100 2183 356 
Q 2397 613 2397 1088 
Q 2397 1622 2184 2012 
Q 1972 2403 1581 2403 
Q 1463 2403 1327 2353 
Q 1191 2303 925 2138 
z
" transform="scale(0.015625)"/>
       </defs>
       <use xlink:href="#TimesNewRomanPSMT-30"/>
       <use xlink:href="#TimesNewRomanPSMT-2e" transform="translate(50 0)"/>
       <use xlink:href="#TimesNewRomanPSMT-36" transform="translate(75 0)"/>
      </g>
     </g>
    </g>
    <g id="ytick_5">
     <g id="line2d_19">
      <g>
       <use xlink:href="#m6a83d30bfa" x="63.182188" y="54.567744" style="stroke: #000000; stroke-width: 0.8"/>
      </g>
     </g>
     <g id="text_19">
      <!-- 0.8 -->
      <g transform="translate(31.182188 61.511494) scale(0.2 -0.2)">
       <defs>
        <path id="TimesNewRomanPSMT-38" d="M 1228 2134 
Q 725 2547 579 2797 
Q 434 3047 434 3316 
Q 434 3728 753 4026 
Q 1072 4325 1600 4325 
Q 2113 4325 2425 4047 
Q 2738 3769 2738 3413 
Q 2738 3175 2569 2928 
Q 2400 2681 1866 2347 
Q 2416 1922 2594 1678 
Q 2831 1359 2831 1006 
Q 2831 559 2490 242 
Q 2150 -75 1597 -75 
Q 994 -75 656 303 
Q 388 606 388 966 
Q 388 1247 577 1523 
Q 766 1800 1228 2134 
z
M 1719 2469 
Q 2094 2806 2194 3001 
Q 2294 3197 2294 3444 
Q 2294 3772 2109 3958 
Q 1925 4144 1606 4144 
Q 1288 4144 1088 3959 
Q 888 3775 888 3528 
Q 888 3366 970 3203 
Q 1053 3041 1206 2894 
L 1719 2469 
z
M 1375 2016 
Q 1116 1797 991 1539 
Q 866 1281 866 981 
Q 866 578 1086 336 
Q 1306 94 1647 94 
Q 1984 94 2187 284 
Q 2391 475 2391 747 
Q 2391 972 2272 1150 
Q 2050 1481 1375 2016 
z
" transform="scale(0.015625)"/>
       </defs>
       <use xlink:href="#TimesNewRomanPSMT-30"/>
       <use xlink:href="#TimesNewRomanPSMT-2e" transform="translate(50 0)"/>
       <use xlink:href="#TimesNewRomanPSMT-38" transform="translate(75 0)"/>
      </g>
     </g>
    </g>
    <g id="text_20">
     <!-- MorphScore Recall -->
     <g transform="translate(22.47625 241.013799) rotate(-90) scale(0.22 -0.22)">
      <defs>
       <path id="TimesNewRomanPSMT-68" d="M 1041 4444 
L 1041 2350 
Q 1388 2731 1591 2839 
Q 1794 2947 1997 2947 
Q 2241 2947 2416 2812 
Q 2591 2678 2675 2391 
Q 2734 2191 2734 1659 
L 2734 647 
Q 2734 375 2778 275 
Q 2809 200 2884 156 
Q 2959 113 3159 113 
L 3159 0 
L 1753 0 
L 1753 113 
L 1819 113 
Q 2019 113 2097 173 
Q 2175 234 2206 353 
Q 2216 403 2216 647 
L 2216 1659 
Q 2216 2128 2167 2275 
Q 2119 2422 2012 2495 
Q 1906 2569 1756 2569 
Q 1603 2569 1437 2487 
Q 1272 2406 1041 2159 
L 1041 647 
Q 1041 353 1073 281 
Q 1106 209 1195 161 
Q 1284 113 1503 113 
L 1503 0 
L 84 0 
L 84 113 
Q 275 113 384 172 
Q 447 203 484 290 
Q 522 378 522 647 
L 522 3238 
Q 522 3728 498 3840 
Q 475 3953 426 3993 
Q 378 4034 297 4034 
Q 231 4034 84 3984 
L 41 4094 
L 897 4444 
L 1041 4444 
z
" transform="scale(0.015625)"/>
       <path id="TimesNewRomanPSMT-53" d="M 2934 4334 
L 2934 2869 
L 2819 2869 
Q 2763 3291 2617 3541 
Q 2472 3791 2203 3937 
Q 1934 4084 1647 4084 
Q 1322 4084 1109 3886 
Q 897 3688 897 3434 
Q 897 3241 1031 3081 
Q 1225 2847 1953 2456 
Q 2547 2138 2764 1967 
Q 2981 1797 3098 1565 
Q 3216 1334 3216 1081 
Q 3216 600 2842 251 
Q 2469 -97 1881 -97 
Q 1697 -97 1534 -69 
Q 1438 -53 1133 45 
Q 828 144 747 144 
Q 669 144 623 97 
Q 578 50 556 -97 
L 441 -97 
L 441 1356 
L 556 1356 
Q 638 900 775 673 
Q 913 447 1195 297 
Q 1478 147 1816 147 
Q 2206 147 2432 353 
Q 2659 559 2659 841 
Q 2659 997 2573 1156 
Q 2488 1316 2306 1453 
Q 2184 1547 1640 1851 
Q 1097 2156 867 2337 
Q 638 2519 519 2737 
Q 400 2956 400 3219 
Q 400 3675 750 4004 
Q 1100 4334 1641 4334 
Q 1978 4334 2356 4169 
Q 2531 4091 2603 4091 
Q 2684 4091 2736 4139 
Q 2788 4188 2819 4334 
L 2934 4334 
z
" transform="scale(0.015625)"/>
       <path id="TimesNewRomanPSMT-20" transform="scale(0.015625)"/>
      </defs>
      <use xlink:href="#TimesNewRomanPSMT-4d"/>
      <use xlink:href="#TimesNewRomanPSMT-6f" transform="translate(88.916016 0)"/>
      <use xlink:href="#TimesNewRomanPSMT-72" transform="translate(138.916016 0)"/>
      <use xlink:href="#TimesNewRomanPSMT-70" transform="translate(172.216797 0)"/>
      <use xlink:href="#TimesNewRomanPSMT-68" transform="translate(222.216797 0)"/>
      <use xlink:href="#TimesNewRomanPSMT-53" transform="translate(272.216797 0)"/>
      <use xlink:href="#TimesNewRomanPSMT-63" transform="translate(327.832031 0)"/>
      <use xlink:href="#TimesNewRomanPSMT-6f" transform="translate(372.216797 0)"/>
      <use xlink:href="#TimesNewRomanPSMT-72" transform="translate(422.216797 0)"/>
      <use xlink:href="#TimesNewRomanPSMT-65" transform="translate(455.517578 0)"/>
      <use xlink:href="#TimesNewRomanPSMT-20" transform="translate(499.902344 0)"/>
      <use xlink:href="#TimesNewRomanPSMT-52" transform="translate(524.902344 0)"/>
      <use xlink:href="#TimesNewRomanPSMT-65" transform="translate(591.601562 0)"/>
      <use xlink:href="#TimesNewRomanPSMT-63" transform="translate(635.986328 0)"/>
      <use xlink:href="#TimesNewRomanPSMT-61" transform="translate(680.371094 0)"/>
      <use xlink:href="#TimesNewRomanPSMT-6c" transform="translate(724.755859 0)"/>
      <use xlink:href="#TimesNewRomanPSMT-6c" transform="translate(752.539062 0)"/>
     </g>
    </g>
   </g>
   <g id="patch_17">
    <path d="M 63.182188 279.098223 
L 63.182188 31.25375 
" style="fill: none; stroke: #000000; stroke-width: 0.8; stroke-linejoin: miter; stroke-linecap: square"/>
   </g>
   <g id="patch_18">
    <path d="M 507.344242 279.098223 
L 507.344242 31.25375 
" style="fill: none; stroke: #000000; stroke-width: 0.8; stroke-linejoin: miter; stroke-linecap: square"/>
   </g>
   <g id="patch_19">
    <path d="M 63.182187 279.098223 
L 507.344242 279.098223 
" style="fill: none; stroke: #000000; stroke-width: 0.8; stroke-linejoin: miter; stroke-linecap: square"/>
   </g>
   <g id="patch_20">
    <path d="M 63.182187 31.25375 
L 507.344242 31.25375 
" style="fill: none; stroke: #000000; stroke-width: 0.8; stroke-linejoin: miter; stroke-linecap: square"/>
   </g>
   <g id="text_21">
    <!-- MorphScore Recall Comparison -->
    <g transform="translate(117.014777 25.25375) scale(0.26 -0.26)">
     <use xlink:href="#TimesNewRomanPSMT-4d"/>
     <use xlink:href="#TimesNewRomanPSMT-6f" transform="translate(88.916016 0)"/>
     <use xlink:href="#TimesNewRomanPSMT-72" transform="translate(138.916016 0)"/>
     <use xlink:href="#TimesNewRomanPSMT-70" transform="translate(172.216797 0)"/>
     <use xlink:href="#TimesNewRomanPSMT-68" transform="translate(222.216797 0)"/>
     <use xlink:href="#TimesNewRomanPSMT-53" transform="translate(272.216797 0)"/>
     <use xlink:href="#TimesNewRomanPSMT-63" transform="translate(327.832031 0)"/>
     <use xlink:href="#TimesNewRomanPSMT-6f" transform="translate(372.216797 0)"/>
     <use xlink:href="#TimesNewRomanPSMT-72" transform="translate(422.216797 0)"/>
     <use xlink:href="#TimesNewRomanPSMT-65" transform="translate(455.517578 0)"/>
     <use xlink:href="#TimesNewRomanPSMT-20" transform="translate(499.902344 0)"/>
     <use xlink:href="#TimesNewRomanPSMT-52" transform="translate(524.902344 0)"/>
     <use xlink:href="#TimesNewRomanPSMT-65" transform="translate(591.601562 0)"/>
     <use xlink:href="#TimesNewRomanPSMT-63" transform="translate(635.986328 0)"/>
     <use xlink:href="#TimesNewRomanPSMT-61" transform="translate(680.371094 0)"/>
     <use xlink:href="#TimesNewRomanPSMT-6c" transform="translate(724.755859 0)"/>
     <use xlink:href="#TimesNewRomanPSMT-6c" transform="translate(752.539062 0)"/>
     <use xlink:href="#TimesNewRomanPSMT-20" transform="translate(780.322266 0)"/>
     <use xlink:href="#TimesNewRomanPSMT-43" transform="translate(805.322266 0)"/>
     <use xlink:href="#TimesNewRomanPSMT-6f" transform="translate(872.021484 0)"/>
     <use xlink:href="#TimesNewRomanPSMT-6d" transform="translate(922.021484 0)"/>
     <use xlink:href="#TimesNewRomanPSMT-70" transform="translate(999.804688 0)"/>
     <use xlink:href="#TimesNewRomanPSMT-61" transform="translate(1049.804688 0)"/>
     <use xlink:href="#TimesNewRomanPSMT-72" transform="translate(1094.189453 0)"/>
     <use xlink:href="#TimesNewRomanPSMT-69" transform="translate(1127.490234 0)"/>
     <use xlink:href="#TimesNewRomanPSMT-73" transform="translate(1155.273438 0)"/>
     <use xlink:href="#TimesNewRomanPSMT-6f" transform="translate(1194.189453 0)"/>
     <use xlink:href="#TimesNewRomanPSMT-6e" transform="translate(1244.189453 0)"/>
    </g>
   </g>
  </g>
  <g id="axes_2">
   <g id="patch_21">
    <path d="M 593.462187 279.098223 
L 1037.624242 279.098223 
L 1037.624242 31.25375 
L 593.462187 31.25375 
z
" style="fill: #ffffff"/>
   </g>
   <g id="patch_22">
    <path d="M 613.651372 279.098223 
L 637.059122 279.098223 
L 637.059122 240.123688 
L 613.651372 240.123688 
z
" clip-path="url(#p0b49228a19)" style="fill: #1f77b4; opacity: 0.8"/>
   </g>
   <g id="patch_23">
    <path d="M 642.911059 279.098223 
L 666.318809 279.098223 
L 666.318809 244.581343 
L 642.911059 244.581343 
z
" clip-path="url(#p0b49228a19)" style="fill: #aec7e8; opacity: 0.8"/>
   </g>
   <g id="patch_24">
    <path d="M 672.170747 279.098223 
L 695.578496 279.098223 
L 695.578496 43.055868 
L 672.170747 43.055868 
z
" clip-path="url(#p0b49228a19)" style="fill: #ffbb78; opacity: 0.8"/>
   </g>
   <g id="patch_25">
    <path d="M 701.430434 279.098223 
L 724.838184 279.098223 
L 724.838184 65.513735 
L 701.430434 65.513735 
z
" clip-path="url(#p0b49228a19)" style="fill: #2ca02c; opacity: 0.8"/>
   </g>
   <g id="patch_26">
    <path d="M 730.690121 279.098223 
L 754.097871 279.098223 
L 754.097871 65.553437 
L 730.690121 65.553437 
z
" clip-path="url(#p0b49228a19)" style="fill: #d62728; opacity: 0.8"/>
   </g>
   <g id="patch_27">
    <path d="M 759.949809 279.098223 
L 783.357558 279.098223 
L 783.357558 155.414869 
L 759.949809 155.414869 
z
" clip-path="url(#p0b49228a19)" style="fill: #ff9896; opacity: 0.8"/>
   </g>
   <g id="patch_28">
    <path d="M 789.209496 279.098223 
L 812.617246 279.098223 
L 812.617246 155.951196 
L 789.209496 155.951196 
z
" clip-path="url(#p0b49228a19)" style="fill: #c5b0d5; opacity: 0.8"/>
   </g>
   <g id="patch_29">
    <path d="M 818.469183 279.098223 
L 841.876933 279.098223 
L 841.876933 155.425026 
L 818.469183 155.425026 
z
" clip-path="url(#p0b49228a19)" style="fill: #8c564b; opacity: 0.8"/>
   </g>
   <g id="patch_30">
    <path d="M 847.728871 279.098223 
L 871.136621 279.098223 
L 871.136621 155.522236 
L 847.728871 155.522236 
z
" clip-path="url(#p0b49228a19)" style="fill: #e377c2; opacity: 0.8"/>
   </g>
   <g id="patch_31">
    <path d="M 876.988558 279.098223 
L 900.396308 279.098223 
L 900.396308 79.522492 
L 876.988558 79.522492 
z
" clip-path="url(#p0b49228a19)" style="fill: #f7b6d2; opacity: 0.8"/>
   </g>
   <g id="patch_32">
    <path d="M 906.248245 279.098223 
L 929.655995 279.098223 
L 929.655995 79.522492 
L 906.248245 79.522492 
z
" clip-path="url(#p0b49228a19)" style="fill: #c7c7c7; opacity: 0.8"/>
   </g>
   <g id="patch_33">
    <path d="M 935.507933 279.098223 
L 958.915683 279.098223 
L 958.915683 76.698317 
L 935.507933 76.698317 
z
" clip-path="url(#p0b49228a19)" style="fill: #bcbd22; opacity: 0.8"/>
   </g>
   <g id="patch_34">
    <path d="M 964.76762 279.098223 
L 988.17537 279.098223 
L 988.17537 76.698317 
L 964.76762 76.698317 
z
" clip-path="url(#p0b49228a19)" style="fill: #17becf; opacity: 0.8"/>
   </g>
   <g id="patch_35">
    <path d="M 994.027308 279.098223 
L 1017.435057 279.098223 
L 1017.435057 73.06867 
L 994.027308 73.06867 
z
" clip-path="url(#p0b49228a19)" style="fill: #9edae5; opacity: 0.8"/>
   </g>
   <g id="matplotlib.axis_3">
    <g id="xtick_15">
     <g id="line2d_20">
      <g>
       <use xlink:href="#m3c6c50761d" x="625.355247" y="279.098223" style="stroke: #000000; stroke-width: 0.8"/>
      </g>
     </g>
     <g id="text_22">
      <!-- qwen3.5 -->
      <g transform="translate(606.673044 338.415949) rotate(-45) scale(0.18 -0.18)">
       <use xlink:href="#TimesNewRomanPSMT-71"/>
       <use xlink:href="#TimesNewRomanPSMT-77" transform="translate(50 0)"/>
       <use xlink:href="#TimesNewRomanPSMT-65" transform="translate(122.216797 0)"/>
       <use xlink:href="#TimesNewRomanPSMT-6e" transform="translate(166.601562 0)"/>
       <use xlink:href="#TimesNewRomanPSMT-33" transform="translate(216.601562 0)"/>
       <use xlink:href="#TimesNewRomanPSMT-2e" transform="translate(266.601562 0)"/>
       <use xlink:href="#TimesNewRomanPSMT-35" transform="translate(291.601562 0)"/>
      </g>
     </g>
    </g>
    <g id="xtick_16">
     <g id="line2d_21">
      <g>
       <use xlink:href="#m3c6c50761d" x="654.614934" y="279.098223" style="stroke: #000000; stroke-width: 0.8"/>
      </g>
     </g>
     <g id="text_23">
      <!-- mistral -->
      <g transform="translate(639.997711 330.285989) rotate(-45) scale(0.18 -0.18)">
       <use xlink:href="#TimesNewRomanPSMT-6d"/>
       <use xlink:href="#TimesNewRomanPSMT-69" transform="translate(77.783203 0)"/>
       <use xlink:href="#TimesNewRomanPSMT-73" transform="translate(105.566406 0)"/>
       <use xlink:href="#TimesNewRomanPSMT-74" transform="translate(144.482422 0)"/>
       <use xlink:href="#TimesNewRomanPSMT-72" transform="translate(172.265625 0)"/>
       <use xlink:href="#TimesNewRomanPSMT-61" transform="translate(205.566406 0)"/>
       <use xlink:href="#TimesNewRomanPSMT-6c" transform="translate(249.951172 0)"/>
      </g>
     </g>
    </g>
    <g id="xtick_17">
     <g id="line2d_22">
      <g>
       <use xlink:href="#m3c6c50761d" x="683.874621" y="279.098223" style="stroke: #000000; stroke-width: 0.8"/>
      </g>
     </g>
     <g id="text_24">
      <!-- modernbertic -->
      <g transform="translate(653.005433 362.78992) rotate(-45) scale(0.18 -0.18)">
       <use xlink:href="#TimesNewRomanPSMT-6d"/>
       <use xlink:href="#TimesNewRomanPSMT-6f" transform="translate(77.783203 0)"/>
       <use xlink:href="#TimesNewRomanPSMT-64" transform="translate(127.783203 0)"/>
       <use xlink:href="#TimesNewRomanPSMT-65" transform="translate(177.783203 0)"/>
       <use xlink:href="#TimesNewRomanPSMT-72" transform="translate(222.167969 0)"/>
       <use xlink:href="#TimesNewRomanPSMT-6e" transform="translate(255.46875 0)"/>
       <use xlink:href="#TimesNewRomanPSMT-62" transform="translate(305.46875 0)"/>
       <use xlink:href="#TimesNewRomanPSMT-65" transform="translate(355.46875 0)"/>
       <use xlink:href="#TimesNewRomanPSMT-72" transform="translate(399.853516 0)"/>
       <use xlink:href="#TimesNewRomanPSMT-74" transform="translate(433.154297 0)"/>
       <use xlink:href="#TimesNewRomanPSMT-69" transform="translate(460.9375 0)"/>
       <use xlink:href="#TimesNewRomanPSMT-63" transform="translate(488.720703 0)"/>
      </g>
     </g>
    </g>
    <g id="xtick_18">
     <g id="line2d_23">
      <g>
       <use xlink:href="#m3c6c50761d" x="713.134309" y="279.098223" style="stroke: #000000; stroke-width: 0.8"/>
      </g>
     </g>
     <g id="text_25">
      <!-- bpe -->
      <g transform="translate(707.00303 313.3141) rotate(-45) scale(0.18 -0.18)">
       <use xlink:href="#TimesNewRomanPSMT-62"/>
       <use xlink:href="#TimesNewRomanPSMT-70" transform="translate(50 0)"/>
       <use xlink:href="#TimesNewRomanPSMT-65" transform="translate(100 0)"/>
      </g>
     </g>
    </g>
    <g id="xtick_19">
     <g id="line2d_24">
      <g>
       <use xlink:href="#m3c6c50761d" x="742.393996" y="279.098223" style="stroke: #000000; stroke-width: 0.8"/>
      </g>
     </g>
     <g id="text_26">
      <!-- ts_bpe -->
      <g transform="translate(728.823844 328.167983) rotate(-45) scale(0.18 -0.18)">
       <use xlink:href="#TimesNewRomanPSMT-74"/>
       <use xlink:href="#TimesNewRomanPSMT-73" transform="translate(27.783203 0)"/>
       <use xlink:href="#TimesNewRomanPSMT-5f" transform="translate(66.699219 0)"/>
       <use xlink:href="#TimesNewRomanPSMT-62" transform="translate(116.699219 0)"/>
       <use xlink:href="#TimesNewRomanPSMT-70" transform="translate(166.699219 0)"/>
       <use xlink:href="#TimesNewRomanPSMT-65" transform="translate(216.699219 0)"/>
      </g>
     </g>
    </g>
    <g id="xtick_20">
     <g id="line2d_25">
      <g>
       <use xlink:href="#m3c6c50761d" x="771.653684" y="279.098223" style="stroke: #000000; stroke-width: 0.8"/>
      </g>
     </g>
     <g id="text_27">
      <!-- MiRe_bpe_control -->
      <g transform="translate(726.623687 391.08767) rotate(-45) scale(0.18 -0.18)">
       <use xlink:href="#TimesNewRomanPSMT-4d"/>
       <use xlink:href="#TimesNewRomanPSMT-69" transform="translate(88.916016 0)"/>
       <use xlink:href="#TimesNewRomanPSMT-52" transform="translate(116.699219 0)"/>
       <use xlink:href="#TimesNewRomanPSMT-65" transform="translate(183.398438 0)"/>
       <use xlink:href="#TimesNewRomanPSMT-5f" transform="translate(227.783203 0)"/>
       <use xlink:href="#TimesNewRomanPSMT-62" transform="translate(277.783203 0)"/>
       <use xlink:href="#TimesNewRomanPSMT-70" transform="translate(327.783203 0)"/>
       <use xlink:href="#TimesNewRomanPSMT-65" transform="translate(377.783203 0)"/>
       <use xlink:href="#TimesNewRomanPSMT-5f" transform="translate(422.167969 0)"/>
       <use xlink:href="#TimesNewRomanPSMT-63" transform="translate(472.167969 0)"/>
       <use xlink:href="#TimesNewRomanPSMT-6f" transform="translate(516.552734 0)"/>
       <use xlink:href="#TimesNewRomanPSMT-6e" transform="translate(566.552734 0)"/>
       <use xlink:href="#TimesNewRomanPSMT-74" transform="translate(616.552734 0)"/>
       <use xlink:href="#TimesNewRomanPSMT-72" transform="translate(644.335938 0)"/>
       <use xlink:href="#TimesNewRomanPSMT-6f" transform="translate(677.636719 0)"/>
       <use xlink:href="#TimesNewRomanPSMT-6c" transform="translate(727.636719 0)"/>
      </g>
     </g>
    </g>
    <g id="xtick_21">
     <g id="line2d_26">
      <g>
       <use xlink:href="#m3c6c50761d" x="800.913371" y="279.098223" style="stroke: #000000; stroke-width: 0.8"/>
      </g>
     </g>
     <g id="text_28">
      <!-- MiRe_bpe -->
      <g transform="translate(777.091275 348.67187) rotate(-45) scale(0.18 -0.18)">
       <use xlink:href="#TimesNewRomanPSMT-4d"/>
       <use xlink:href="#TimesNewRomanPSMT-69" transform="translate(88.916016 0)"/>
       <use xlink:href="#TimesNewRomanPSMT-52" transform="translate(116.699219 0)"/>
       <use xlink:href="#TimesNewRomanPSMT-65" transform="translate(183.398438 0)"/>
       <use xlink:href="#TimesNewRomanPSMT-5f" transform="translate(227.783203 0)"/>
       <use xlink:href="#TimesNewRomanPSMT-62" transform="translate(277.783203 0)"/>
       <use xlink:href="#TimesNewRomanPSMT-70" transform="translate(327.783203 0)"/>
       <use xlink:href="#TimesNewRomanPSMT-65" transform="translate(377.783203 0)"/>
      </g>
     </g>
    </g>
    <g id="xtick_22">
     <g id="line2d_27">
      <g>
       <use xlink:href="#m3c6c50761d" x="830.173058" y="279.098223" style="stroke: #000000; stroke-width: 0.8"/>
      </g>
     </g>
     <g id="text_29">
      <!-- MiRe_bpe_mien -->
      <g transform="translate(790.444043 380.485709) rotate(-45) scale(0.18 -0.18)">
       <use xlink:href="#TimesNewRomanPSMT-4d"/>
       <use xlink:href="#TimesNewRomanPSMT-69" transform="translate(88.916016 0)"/>
       <use xlink:href="#TimesNewRomanPSMT-52" transform="translate(116.699219 0)"/>
       <use xlink:href="#TimesNewRomanPSMT-65" transform="translate(183.398438 0)"/>
       <use xlink:href="#TimesNewRomanPSMT-5f" transform="translate(227.783203 0)"/>
       <use xlink:href="#TimesNewRomanPSMT-62" transform="translate(277.783203 0)"/>
       <use xlink:href="#TimesNewRomanPSMT-70" transform="translate(327.783203 0)"/>
       <use xlink:href="#TimesNewRomanPSMT-65" transform="translate(377.783203 0)"/>
       <use xlink:href="#TimesNewRomanPSMT-5f" transform="translate(422.167969 0)"/>
       <use xlink:href="#TimesNewRomanPSMT-6d" transform="translate(472.167969 0)"/>
       <use xlink:href="#TimesNewRomanPSMT-69" transform="translate(549.951172 0)"/>
       <use xlink:href="#TimesNewRomanPSMT-65" transform="translate(577.734375 0)"/>
       <use xlink:href="#TimesNewRomanPSMT-6e" transform="translate(622.119141 0)"/>
      </g>
     </g>
    </g>
    <g id="xtick_23">
     <g id="line2d_28">
      <g>
       <use xlink:href="#m3c6c50761d" x="859.432746" y="279.098223" style="stroke: #000000; stroke-width: 0.8"/>
      </g>
     </g>
     <g id="text_30">
      <!-- MiRe_bpe_control2 -->
      <g transform="translate(811.220769 397.451631) rotate(-45) scale(0.18 -0.18)">
       <use xlink:href="#TimesNewRomanPSMT-4d"/>
       <use xlink:href="#TimesNewRomanPSMT-69" transform="translate(88.916016 0)"/>
       <use xlink:href="#TimesNewRomanPSMT-52" transform="translate(116.699219 0)"/>
       <use xlink:href="#TimesNewRomanPSMT-65" transform="translate(183.398438 0)"/>
       <use xlink:href="#TimesNewRomanPSMT-5f" transform="translate(227.783203 0)"/>
       <use xlink:href="#TimesNewRomanPSMT-62" transform="translate(277.783203 0)"/>
       <use xlink:href="#TimesNewRomanPSMT-70" transform="translate(327.783203 0)"/>
       <use xlink:href="#TimesNewRomanPSMT-65" transform="translate(377.783203 0)"/>
       <use xlink:href="#TimesNewRomanPSMT-5f" transform="translate(422.167969 0)"/>
       <use xlink:href="#TimesNewRomanPSMT-63" transform="translate(472.167969 0)"/>
       <use xlink:href="#TimesNewRomanPSMT-6f" transform="translate(516.552734 0)"/>
       <use xlink:href="#TimesNewRomanPSMT-6e" transform="translate(566.552734 0)"/>
       <use xlink:href="#TimesNewRomanPSMT-74" transform="translate(616.552734 0)"/>
       <use xlink:href="#TimesNewRomanPSMT-72" transform="translate(644.335938 0)"/>
       <use xlink:href="#TimesNewRomanPSMT-6f" transform="translate(677.636719 0)"/>
       <use xlink:href="#TimesNewRomanPSMT-6c" transform="translate(727.636719 0)"/>
       <use xlink:href="#TimesNewRomanPSMT-32" transform="translate(755.419922 0)"/>
      </g>
     </g>
    </g>
    <g id="xtick_24">
     <g id="line2d_29">
      <g>
       <use xlink:href="#m3c6c50761d" x="888.692433" y="279.098223" style="stroke: #000000; stroke-width: 0.8"/>
      </g>
     </g>
     <g id="text_31">
      <!-- srna -->
      <g transform="translate(881.147162 316.142085) rotate(-45) scale(0.18 -0.18)">
       <use xlink:href="#TimesNewRomanPSMT-73"/>
       <use xlink:href="#TimesNewRomanPSMT-72" transform="translate(38.916016 0)"/>
       <use xlink:href="#TimesNewRomanPSMT-6e" transform="translate(72.216797 0)"/>
       <use xlink:href="#TimesNewRomanPSMT-61" transform="translate(122.216797 0)"/>
      </g>
     </g>
    </g>
    <g id="xtick_25">
     <g id="line2d_30">
      <g>
       <use xlink:href="#m3c6c50761d" x="917.95212" y="279.098223" style="stroke: #000000; stroke-width: 0.8"/>
      </g>
     </g>
     <g id="text_32">
      <!-- srna2 -->
      <g transform="translate(907.224869 322.506046) rotate(-45) scale(0.18 -0.18)">
       <use xlink:href="#TimesNewRomanPSMT-73"/>
       <use xlink:href="#TimesNewRomanPSMT-72" transform="translate(38.916016 0)"/>
       <use xlink:href="#TimesNewRomanPSMT-6e" transform="translate(72.216797 0)"/>
       <use xlink:href="#TimesNewRomanPSMT-61" transform="translate(122.216797 0)"/>
       <use xlink:href="#TimesNewRomanPSMT-32" transform="translate(166.601562 0)"/>
      </g>
     </g>
    </g>
    <g id="xtick_26">
     <g id="line2d_31">
      <g>
       <use xlink:href="#m3c6c50761d" x="947.211808" y="279.098223" style="stroke: #000000; stroke-width: 0.8"/>
      </g>
     </g>
     <g id="text_33">
      <!-- Morfotok_base -->
      <g transform="translate(911.373758 372.703778) rotate(-45) scale(0.18 -0.18)">
       <use xlink:href="#TimesNewRomanPSMT-4d"/>
       <use xlink:href="#TimesNewRomanPSMT-6f" transform="translate(88.916016 0)"/>
       <use xlink:href="#TimesNewRomanPSMT-72" transform="translate(138.916016 0)"/>
       <use xlink:href="#TimesNewRomanPSMT-66" transform="translate(172.216797 0)"/>
       <use xlink:href="#TimesNewRomanPSMT-6f" transform="translate(205.517578 0)"/>
       <use xlink:href="#TimesNewRomanPSMT-74" transform="translate(255.517578 0)"/>
       <use xlink:href="#TimesNewRomanPSMT-6f" transform="translate(283.300781 0)"/>
       <use xlink:href="#TimesNewRomanPSMT-6b" transform="translate(333.300781 0)"/>
       <use xlink:href="#TimesNewRomanPSMT-5f" transform="translate(383.300781 0)"/>
       <use xlink:href="#TimesNewRomanPSMT-62" transform="translate(433.300781 0)"/>
       <use xlink:href="#TimesNewRomanPSMT-61" transform="translate(483.300781 0)"/>
       <use xlink:href="#TimesNewRomanPSMT-73" transform="translate(527.685547 0)"/>
       <use xlink:href="#TimesNewRomanPSMT-65" transform="translate(566.601562 0)"/>
      </g>
     </g>
    </g>
    <g id="xtick_27">
     <g id="line2d_32">
      <g>
       <use xlink:href="#m3c6c50761d" x="976.471495" y="279.098223" style="stroke: #000000; stroke-width: 0.8"/>
      </g>
     </g>
     <g id="text_34">
      <!-- Morfotok -->
      <g transform="translate(955.136316 343.721901) rotate(-45) scale(0.18 -0.18)">
       <use xlink:href="#TimesNewRomanPSMT-4d"/>
       <use xlink:href="#TimesNewRomanPSMT-6f" transform="translate(88.916016 0)"/>
       <use xlink:href="#TimesNewRomanPSMT-72" transform="translate(138.916016 0)"/>
       <use xlink:href="#TimesNewRomanPSMT-66" transform="translate(172.216797 0)"/>
       <use xlink:href="#TimesNewRomanPSMT-6f" transform="translate(205.517578 0)"/>
       <use xlink:href="#TimesNewRomanPSMT-74" transform="translate(255.517578 0)"/>
       <use xlink:href="#TimesNewRomanPSMT-6f" transform="translate(283.300781 0)"/>
       <use xlink:href="#TimesNewRomanPSMT-6b" transform="translate(333.300781 0)"/>
      </g>
     </g>
    </g>
    <g id="xtick_28">
     <g id="line2d_33">
      <g>
       <use xlink:href="#m3c6c50761d" x="1005.731182" y="279.098223" style="stroke: #000000; stroke-width: 0.8"/>
      </g>
     </g>
     <g id="text_35">
      <!-- MorfotokCF -->
      <g transform="translate(976.612083 359.289741) rotate(-45) scale(0.18 -0.18)">
       <use xlink:href="#TimesNewRomanPSMT-4d"/>
       <use xlink:href="#TimesNewRomanPSMT-6f" transform="translate(88.916016 0)"/>
       <use xlink:href="#TimesNewRomanPSMT-72" transform="translate(138.916016 0)"/>
       <use xlink:href="#TimesNewRomanPSMT-66" transform="translate(172.216797 0)"/>
       <use xlink:href="#TimesNewRomanPSMT-6f" transform="translate(205.517578 0)"/>
       <use xlink:href="#TimesNewRomanPSMT-74" transform="translate(255.517578 0)"/>
       <use xlink:href="#TimesNewRomanPSMT-6f" transform="translate(283.300781 0)"/>
       <use xlink:href="#TimesNewRomanPSMT-6b" transform="translate(333.300781 0)"/>
       <use xlink:href="#TimesNewRomanPSMT-43" transform="translate(383.300781 0)"/>
       <use xlink:href="#TimesNewRomanPSMT-46" transform="translate(450 0)"/>
      </g>
     </g>
    </g>
   </g>
   <g id="matplotlib.axis_4">
    <g id="ytick_6">
     <g id="line2d_34">
      <g>
       <use xlink:href="#m6a83d30bfa" x="593.462187" y="279.098223" style="stroke: #000000; stroke-width: 0.8"/>
      </g>
     </g>
     <g id="text_36">
      <!-- 0.0 -->
      <g transform="translate(561.462187 286.041973) scale(0.2 -0.2)">
       <use xlink:href="#TimesNewRomanPSMT-30"/>
       <use xlink:href="#TimesNewRomanPSMT-2e" transform="translate(50 0)"/>
       <use xlink:href="#TimesNewRomanPSMT-30" transform="translate(75 0)"/>
      </g>
     </g>
    </g>
    <g id="ytick_7">
     <g id="line2d_35">
      <g>
       <use xlink:href="#m6a83d30bfa" x="593.462187" y="217.091298" style="stroke: #000000; stroke-width: 0.8"/>
      </g>
     </g>
     <g id="text_37">
      <!-- 0.2 -->
      <g transform="translate(561.462187 224.035048) scale(0.2 -0.2)">
       <use xlink:href="#TimesNewRomanPSMT-30"/>
       <use xlink:href="#TimesNewRomanPSMT-2e" transform="translate(50 0)"/>
       <use xlink:href="#TimesNewRomanPSMT-32" transform="translate(75 0)"/>
      </g>
     </g>
    </g>
    <g id="ytick_8">
     <g id="line2d_36">
      <g>
       <use xlink:href="#m6a83d30bfa" x="593.462187" y="155.084372" style="stroke: #000000; stroke-width: 0.8"/>
      </g>
     </g>
     <g id="text_38">
      <!-- 0.4 -->
      <g transform="translate(561.462187 162.028122) scale(0.2 -0.2)">
       <use xlink:href="#TimesNewRomanPSMT-30"/>
       <use xlink:href="#TimesNewRomanPSMT-2e" transform="translate(50 0)"/>
       <use xlink:href="#TimesNewRomanPSMT-34" transform="translate(75 0)"/>
      </g>
     </g>
    </g>
    <g id="ytick_9">
     <g id="line2d_37">
      <g>
       <use xlink:href="#m6a83d30bfa" x="593.462187" y="93.077447" style="stroke: #000000; stroke-width: 0.8"/>
      </g>
     </g>
     <g id="text_39">
      <!-- 0.6 -->
      <g transform="translate(561.462187 100.021197) scale(0.2 -0.2)">
       <use xlink:href="#TimesNewRomanPSMT-30"/>
       <use xlink:href="#TimesNewRomanPSMT-2e" transform="translate(50 0)"/>
       <use xlink:href="#TimesNewRomanPSMT-36" transform="translate(75 0)"/>
      </g>
     </g>
    </g>
    <g id="text_40">
     <!-- MorphScore Precision -->
     <g transform="translate(552.75625 253.85458) rotate(-90) scale(0.22 -0.22)">
      <defs>
       <path id="TimesNewRomanPSMT-50" d="M 1313 1984 
L 1313 750 
Q 1313 350 1400 253 
Q 1519 116 1759 116 
L 1922 116 
L 1922 0 
L 106 0 
L 106 116 
L 266 116 
Q 534 116 650 291 
Q 713 388 713 750 
L 713 3488 
Q 713 3888 628 3984 
Q 506 4122 266 4122 
L 106 4122 
L 106 4238 
L 1659 4238 
Q 2228 4238 2556 4120 
Q 2884 4003 3109 3725 
Q 3334 3447 3334 3066 
Q 3334 2547 2992 2222 
Q 2650 1897 2025 1897 
Q 1872 1897 1694 1919 
Q 1516 1941 1313 1984 
z
M 1313 2163 
Q 1478 2131 1606 2115 
Q 1734 2100 1825 2100 
Q 2150 2100 2386 2351 
Q 2622 2603 2622 3003 
Q 2622 3278 2509 3514 
Q 2397 3750 2190 3867 
Q 1984 3984 1722 3984 
Q 1563 3984 1313 3925 
L 1313 2163 
z
" transform="scale(0.015625)"/>
      </defs>
      <use xlink:href="#TimesNewRomanPSMT-4d"/>
      <use xlink:href="#TimesNewRomanPSMT-6f" transform="translate(88.916016 0)"/>
      <use xlink:href="#TimesNewRomanPSMT-72" transform="translate(138.916016 0)"/>
      <use xlink:href="#TimesNewRomanPSMT-70" transform="translate(172.216797 0)"/>
      <use xlink:href="#TimesNewRomanPSMT-68" transform="translate(222.216797 0)"/>
      <use xlink:href="#TimesNewRomanPSMT-53" transform="translate(272.216797 0)"/>
      <use xlink:href="#TimesNewRomanPSMT-63" transform="translate(327.832031 0)"/>
      <use xlink:href="#TimesNewRomanPSMT-6f" transform="translate(372.216797 0)"/>
      <use xlink:href="#TimesNewRomanPSMT-72" transform="translate(422.216797 0)"/>
      <use xlink:href="#TimesNewRomanPSMT-65" transform="translate(455.517578 0)"/>
      <use xlink:href="#TimesNewRomanPSMT-20" transform="translate(499.902344 0)"/>
      <use xlink:href="#TimesNewRomanPSMT-50" transform="translate(524.902344 0)"/>
      <use xlink:href="#TimesNewRomanPSMT-72" transform="translate(580.517578 0)"/>
      <use xlink:href="#TimesNewRomanPSMT-65" transform="translate(613.818359 0)"/>
      <use xlink:href="#TimesNewRomanPSMT-63" transform="translate(658.203125 0)"/>
      <use xlink:href="#TimesNewRomanPSMT-69" transform="translate(702.587891 0)"/>
      <use xlink:href="#TimesNewRomanPSMT-73" transform="translate(730.371094 0)"/>
      <use xlink:href="#TimesNewRomanPSMT-69" transform="translate(769.287109 0)"/>
      <use xlink:href="#TimesNewRomanPSMT-6f" transform="translate(797.070312 0)"/>
      <use xlink:href="#TimesNewRomanPSMT-6e" transform="translate(847.070312 0)"/>
     </g>
    </g>
   </g>
   <g id="patch_36">
    <path d="M 593.462187 279.098223 
L 593.462187 31.25375 
" style="fill: none; stroke: #000000; stroke-width: 0.8; stroke-linejoin: miter; stroke-linecap: square"/>
   </g>
   <g id="patch_37">
    <path d="M 1037.624242 279.098223 
L 1037.624242 31.25375 
" style="fill: none; stroke: #000000; stroke-width: 0.8; stroke-linejoin: miter; stroke-linecap: square"/>
   </g>
   <g id="patch_38">
    <path d="M 593.462187 279.098223 
L 1037.624242 279.098223 
" style="fill: none; stroke: #000000; stroke-width: 0.8; stroke-linejoin: miter; stroke-linecap: square"/>
   </g>
   <g id="patch_39">
    <path d="M 593.462187 31.25375 
L 1037.624242 31.25375 
" style="fill: none; stroke: #000000; stroke-width: 0.8; stroke-linejoin: miter; stroke-linecap: square"/>
   </g>
   <g id="text_41">
    <!-- MorphScore Precision Comparison -->
    <g transform="translate(632.119308 25.25375) scale(0.26 -0.26)">
     <use xlink:href="#TimesNewRomanPSMT-4d"/>
     <use xlink:href="#TimesNewRomanPSMT-6f" transform="translate(88.916016 0)"/>
     <use xlink:href="#TimesNewRomanPSMT-72" transform="translate(138.916016 0)"/>
     <use xlink:href="#TimesNewRomanPSMT-70" transform="translate(172.216797 0)"/>
     <use xlink:href="#TimesNewRomanPSMT-68" transform="translate(222.216797 0)"/>
     <use xlink:href="#TimesNewRomanPSMT-53" transform="translate(272.216797 0)"/>
     <use xlink:href="#TimesNewRomanPSMT-63" transform="translate(327.832031 0)"/>
     <use xlink:href="#TimesNewRomanPSMT-6f" transform="translate(372.216797 0)"/>
     <use xlink:href="#TimesNewRomanPSMT-72" transform="translate(422.216797 0)"/>
     <use xlink:href="#TimesNewRomanPSMT-65" transform="translate(455.517578 0)"/>
     <use xlink:href="#TimesNewRomanPSMT-20" transform="translate(499.902344 0)"/>
     <use xlink:href="#TimesNewRomanPSMT-50" transform="translate(524.902344 0)"/>
     <use xlink:href="#TimesNewRomanPSMT-72" transform="translate(580.517578 0)"/>
     <use xlink:href="#TimesNewRomanPSMT-65" transform="translate(613.818359 0)"/>
     <use xlink:href="#TimesNewRomanPSMT-63" transform="translate(658.203125 0)"/>
     <use xlink:href="#TimesNewRomanPSMT-69" transform="translate(702.587891 0)"/>
     <use xlink:href="#TimesNewRomanPSMT-73" transform="translate(730.371094 0)"/>
     <use xlink:href="#TimesNewRomanPSMT-69" transform="translate(769.287109 0)"/>
     <use xlink:href="#TimesNewRomanPSMT-6f" transform="translate(797.070312 0)"/>
     <use xlink:href="#TimesNewRomanPSMT-6e" transform="translate(847.070312 0)"/>
     <use xlink:href="#TimesNewRomanPSMT-20" transform="translate(897.070312 0)"/>
     <use xlink:href="#TimesNewRomanPSMT-43" transform="translate(922.070312 0)"/>
     <use xlink:href="#TimesNewRomanPSMT-6f" transform="translate(988.769531 0)"/>
     <use xlink:href="#TimesNewRomanPSMT-6d" transform="translate(1038.769531 0)"/>
     <use xlink:href="#TimesNewRomanPSMT-70" transform="translate(1116.552734 0)"/>
     <use xlink:href="#TimesNewRomanPSMT-61" transform="translate(1166.552734 0)"/>
     <use xlink:href="#TimesNewRomanPSMT-72" transform="translate(1210.9375 0)"/>
     <use xlink:href="#TimesNewRomanPSMT-69" transform="translate(1244.238281 0)"/>
     <use xlink:href="#TimesNewRomanPSMT-73" transform="translate(1272.021484 0)"/>
     <use xlink:href="#TimesNewRomanPSMT-6f" transform="translate(1310.9375 0)"/>
     <use xlink:href="#TimesNewRomanPSMT-6e" transform="translate(1360.9375 0)"/>
    </g>
   </g>
  </g>
 </g>
 <defs>
  <clipPath id="p687edb0f01">
   <rect x="63.182188" y="31.25375" width="444.162054" height="247.844473"/>
  </clipPath>
  <clipPath id="p0b49228a19">
   <rect x="593.462187" y="31.25375" width="444.162054" height="247.844473"/>
  </clipPath>
 </defs>
</svg>
